<svg version="1.1" id="Layer_1" xmlns="http://www.w3.org/2000/svg" xmlns:xlink="http://www.w3.org/1999/xlink" x="0px" y="0px"
	 width="100%" viewBox="0 0 800 800" enable-background="new 0 0 800 800" xml:space="preserve">
<path fill="#000000" opacity="1.000000" stroke="none" 
	d="
M544.000000,801.000000 
	C362.666656,801.000000 181.833328,801.000000 1.000000,801.000000 
	C1.000000,534.333313 1.000000,267.666656 1.000000,1.000000 
	C267.666656,1.000000 534.333313,1.000000 801.000000,1.000000 
	C801.000000,267.666656 801.000000,534.333313 801.000000,801.000000 
	C715.500000,801.000000 630.000000,801.000000 544.000000,801.000000 
M119.977585,218.977829 
	C119.977585,218.977829 119.939461,218.905304 119.308609,219.176880 
	C116.500832,224.103928 113.693054,229.030975 110.193153,234.366318 
	C108.627220,242.652145 107.499039,250.920670 111.026825,259.674927 
	C111.470299,260.690430 111.913773,261.705963 112.788948,263.260956 
	C114.488876,265.855713 116.188805,268.450470 118.137527,271.645477 
	C119.408737,272.799408 120.679947,273.953339 122.185005,275.700195 
	C123.086288,276.148529 123.987564,276.596832 125.182556,277.696991 
	C128.441025,279.169617 131.699493,280.642273 135.202942,282.689911 
	C135.802155,282.737732 136.401352,282.785553 137.708572,283.188232 
	C139.472504,283.403259 141.236420,283.618286 143.927475,283.979889 
	C157.485565,283.979889 171.043671,283.979889 184.992004,283.979889 
	C184.992004,268.632996 185.070908,253.736908 184.896378,238.843781 
	C184.873459,236.888168 183.552887,234.947769 182.973694,232.339294 
	C182.593582,231.559753 182.213470,230.780212 181.779175,229.299744 
	C179.867172,226.495239 177.955185,223.690750 175.798782,220.281631 
	C174.199371,218.799179 172.599960,217.316727 170.986191,215.552811 
	C170.986191,215.552811 170.753189,215.394241 170.130096,215.035141 
	C163.913223,211.299942 157.729904,207.466400 149.133926,208.020294 
	C147.089401,208.069092 145.044876,208.117874 142.174576,208.020416 
	C138.449936,209.069138 134.725311,210.117874 130.370712,211.161362 
	C129.566406,211.736023 128.762115,212.310684 127.249138,212.992233 
	C124.801109,214.974716 122.353088,216.957199 119.977585,218.977829 
M278.000000,493.500000 
	C278.000000,455.075928 278.000000,416.651825 278.000000,378.356476 
	C297.713013,378.356476 316.776459,378.356476 336.000000,378.356476 
	C336.000000,380.536072 336.000000,382.359772 336.000000,384.183472 
	C336.000000,446.348755 335.998138,508.514038 336.010498,570.679321 
	C336.010803,572.335266 335.862427,574.075439 336.294556,575.634583 
	C342.819336,599.176514 364.066162,610.322327 387.396179,602.997742 
	C401.379028,598.607666 412.136780,583.210815 412.097748,568.802429 
	C411.890015,492.138000 412.031342,415.472687 411.914154,338.807892 
	C411.907806,334.654205 411.176025,330.334473 409.893616,326.380066 
	C405.363739,312.411713 390.437225,301.810730 376.043732,301.928284 
	C346.713013,302.167908 317.376678,302.205261 288.047577,301.880463 
	C278.709351,301.777069 270.323608,303.698273 263.019745,309.020569 
	C251.394791,300.984222 239.127182,299.843475 226.328094,304.064392 
	C212.336594,308.678558 201.898346,323.605164 201.926987,337.988892 
	C202.081299,415.486877 201.998810,492.985291 202.008087,570.483582 
	C202.008286,572.142273 201.814606,573.886536 202.239746,575.446899 
	C208.782150,599.459351 230.512375,610.456604 253.683701,602.929382 
	C267.703033,598.375183 278.221497,583.388306 278.071655,568.997620 
	C277.813080,544.167542 278.000000,519.332764 278.000000,493.500000 
M429.000000,421.500000 
	C429.000000,471.144257 428.998291,520.788513 429.007507,570.432800 
	C429.007812,572.091553 428.798950,573.837708 429.225250,575.395996 
	C436.045319,600.327087 458.467712,610.464661 481.076843,602.834351 
	C495.120697,598.094604 505.132721,583.398438 505.084503,568.599365 
	C504.883698,506.960999 505.000000,445.321625 505.000000,383.682587 
	C505.000000,381.905609 505.000000,380.128632 505.000000,378.000549 
	C506.479797,378.000549 507.443512,378.000549 508.407257,378.000549 
	C526.898987,378.000366 545.390686,378.008331 563.882385,377.985992 
	C565.530884,377.984009 567.258362,378.069153 568.815735,377.635071 
	C592.561035,371.016205 603.326233,349.439056 595.958679,326.446381 
	C591.476379,312.458466 576.434387,301.835907 562.149292,301.932068 
	C529.998474,302.148590 497.844849,301.927338 465.693420,302.089386 
	C461.540588,302.110321 457.212219,302.802429 453.277039,304.117157 
	C439.265991,308.798035 428.792847,323.628998 428.926178,338.037659 
	C429.180511,365.522980 429.000000,393.012329 429.000000,421.500000 
M109.000000,431.500000 
	C109.000023,477.832275 108.998016,524.164551 109.008354,570.496826 
	C109.008720,572.155334 108.817757,573.899414 109.243477,575.459595 
	C115.808701,599.520874 137.581406,610.447693 160.696198,602.926575 
	C174.719009,598.363770 185.116058,583.380493 185.074997,568.984924 
	C184.899078,507.320190 185.000000,445.654663 185.000000,383.989410 
	C185.000000,382.061157 185.000000,380.132935 185.000000,377.746948 
	C189.386276,377.746948 193.122162,377.746948 197.000031,377.746948 
	C197.000031,364.288971 196.770676,351.293091 197.081497,338.310120 
	C197.285141,329.804626 198.805161,321.319824 204.322281,314.514343 
	C208.044128,309.923340 212.805450,306.175018 217.153580,302.000031 
	C193.387924,302.000031 169.569534,301.904236 145.753342,302.090698 
	C141.596939,302.123230 137.275360,302.813599 133.329849,304.111481 
	C119.326912,308.717743 108.813744,323.611206 108.926186,338.002716 
	C109.167061,368.833435 109.000008,399.667389 109.000000,431.500000 
M542.936890,574.717224 
	C543.872009,578.458923 544.807190,582.200623 545.742371,585.942261 
	C546.189941,585.883301 546.637512,585.824280 547.085083,585.765259 
	C549.383057,577.400330 551.506897,568.980530 554.113159,560.712769 
	C554.694641,558.868042 556.701904,556.854858 558.526428,556.156006 
	C561.757690,554.918518 563.241882,557.432312 563.967041,560.229126 
	C565.021729,564.296936 565.940186,568.400635 567.025696,572.459900 
	C568.231995,576.970581 569.560608,581.448669 570.835938,585.940918 
	C571.309937,585.898743 571.783936,585.856506 572.257935,585.814331 
	C573.505737,580.846069 574.571167,575.822876 576.047485,570.923462 
	C577.893982,564.795532 577.297852,557.389648 584.700867,554.006470 
	C587.636963,552.664673 590.426697,550.980835 593.209595,549.328918 
	C612.091248,538.120911 627.987671,523.401428 641.700134,506.462158 
	C651.912598,493.846588 660.214844,479.887177 666.618835,464.871246 
	C672.425537,451.255920 677.133179,437.221497 678.805420,422.559448 
	C680.372986,408.815948 680.959534,394.880951 680.779480,381.045807 
	C680.659607,371.834564 678.833435,362.573944 677.073486,353.470245 
	C673.194824,333.408112 665.379028,314.846527 654.810120,297.374512 
	C643.360718,278.446838 628.740662,262.244690 611.655212,248.437912 
	C597.240601,236.789490 581.096680,227.818237 563.797607,220.896057 
	C546.319946,213.902435 528.197632,209.303284 509.555664,208.259399 
	C492.480438,207.303253 475.322388,207.460052 458.233185,210.815674 
	C434.241394,215.526672 412.017731,224.120819 391.373535,237.098862 
	C374.076996,247.972382 359.350769,261.729004 346.314301,277.311707 
	C341.528412,283.032349 337.513672,289.398193 333.147186,295.469727 
	C333.465149,295.881195 333.783142,296.292664 334.101135,296.704132 
	C336.225372,295.797272 339.258301,295.497009 340.331879,293.888763 
	C349.992706,279.417267 361.329834,266.450439 374.963928,255.703201 
	C383.876862,248.677505 393.070496,241.797134 402.905640,236.199783 
	C419.123932,226.969650 436.330353,219.622284 454.923004,216.671021 
	C468.143890,214.572449 481.502136,212.767624 494.853424,212.259369 
	C504.072876,211.908417 513.398254,213.887253 522.653015,215.015793 
	C539.854248,217.113312 555.958252,222.714447 571.696777,229.867920 
	C597.420654,241.559830 618.966980,258.587555 636.674133,280.340271 
	C652.400513,299.659576 663.434998,321.519928 670.149048,345.660004 
	C674.388489,360.902893 676.532654,376.426758 676.712769,392.034851 
	C676.845642,403.543671 674.794800,415.158081 672.911377,426.592743 
	C669.259827,448.762054 660.541931,469.031860 648.563171,487.975128 
	C638.830261,503.366760 627.304688,517.230774 612.919800,528.412842 
	C603.452881,535.771973 593.626587,542.786926 583.355835,548.946594 
	C577.830811,552.260132 574.529480,556.252747 573.030579,562.187500 
	C572.594788,563.913025 572.167358,565.640686 571.548523,568.118347 
	C570.854675,565.875793 570.374451,564.510315 570.015442,563.113770 
	C569.613525,561.549805 569.363403,559.947083 568.973328,558.379700 
	C567.842407,553.834900 564.142456,551.041382 559.260437,550.999878 
	C553.992737,550.955200 550.193542,553.664307 549.026367,558.358704 
	C548.205261,561.661194 547.450317,564.980286 546.534790,568.845093 
	C545.490784,564.932251 544.757996,561.618652 543.716858,558.405029 
	C541.690674,552.150635 536.547241,549.411926 530.205750,551.021790 
	C526.502136,551.961975 523.705933,557.916931 525.102966,563.045959 
	C528.243103,574.574341 531.331421,586.143860 535.258545,597.411621 
	C536.219849,600.169861 540.057007,603.044250 543.053955,603.716492 
	C547.719727,604.763184 553.202637,605.007019 556.452454,599.934570 
	C557.579102,598.176147 557.950012,595.933533 558.721558,593.755554 
	C559.392578,594.286682 559.795105,594.439270 559.846619,594.670227 
	C561.239746,600.910706 563.934875,603.748413 568.759888,603.999146 
	C578.125122,604.485901 580.706360,603.104797 583.034973,595.620300 
	C586.151611,585.602966 588.942871,575.484192 592.068848,565.469849 
	C592.585999,563.813171 593.771057,561.922424 595.202087,561.060669 
	C613.265686,550.182617 629.450684,537.210754 643.438721,521.264526 
	C658.205444,504.430573 669.727661,485.784424 678.342896,465.223724 
	C685.867798,447.265320 690.628479,428.453522 691.695740,409.158203 
	C692.540039,393.894501 691.151123,378.440765 689.879517,363.144135 
	C688.430847,345.716461 682.834595,329.214264 675.655884,313.397308 
	C662.687439,284.823853 644.131836,260.497101 619.455750,240.831833 
	C602.272156,227.137680 583.581726,216.365662 562.920105,208.946548 
	C547.279907,203.330521 531.392090,198.551880 514.673889,198.087524 
	C498.669769,197.643005 482.524017,196.785400 466.658112,198.335815 
	C448.634216,200.097092 431.273682,205.564636 414.429077,212.703568 
	C392.414124,222.033737 372.854401,234.928543 355.514801,251.172363 
	C348.559540,257.688110 342.231964,264.968719 336.268555,272.421234 
	C330.537079,279.583923 325.645660,287.418793 320.385101,294.958313 
	C320.840881,295.520721 321.296661,296.083099 321.752411,296.645508 
	C323.813324,295.565887 326.763550,295.026794 327.798706,293.323700 
	C339.150055,274.647552 353.428864,258.682770 370.431549,244.960983 
	C388.687836,230.227493 408.816132,218.905792 431.016418,211.601410 
	C453.746979,204.122589 477.123627,199.834290 501.199097,202.080948 
	C514.179321,203.292236 527.240540,204.560196 539.985229,207.169693 
	C562.767578,211.834427 583.675903,221.600311 602.818420,234.589020 
	C616.221069,243.683136 628.687805,254.065063 639.327209,266.603424 
	C649.071472,278.086884 657.992859,290.023407 665.026978,303.319977 
	C681.106628,333.715454 689.269958,365.975555 686.911682,400.481842 
	C686.121643,412.040985 685.360901,423.775635 682.754456,435.004761 
	C674.836243,469.119110 658.377319,498.900269 634.177856,524.224792 
	C621.347839,537.651306 606.569275,548.707153 590.432129,557.939819 
	C589.369141,558.547974 588.417847,559.902222 588.057739,561.102356 
	C584.624084,572.547913 581.575317,584.117920 577.767639,595.433960 
	C577.083740,597.466614 573.514099,599.493835 571.129883,599.684265 
	C569.212036,599.837585 566.368896,597.634766 565.209473,595.710388 
	C563.777222,593.333252 563.762756,590.133301 562.953064,587.341858 
	C561.923645,583.793091 560.710999,580.297424 559.577393,576.778870 
	C559.110718,576.843140 558.644043,576.907410 558.177368,576.971680 
	C556.449890,582.820740 554.639832,588.647156 553.028137,594.527954 
	C552.153137,597.720764 550.239807,600.365479 547.065430,599.774658 
	C544.434326,599.284973 540.678711,597.333557 539.983337,595.196167 
	C536.192505,583.544189 533.155762,571.644714 529.999573,559.793091 
	C529.754639,558.873474 530.258240,557.310303 530.972595,556.658264 
	C533.723022,554.147522 537.110718,555.085754 538.440552,559.026855 
	C540.090210,563.915588 541.169800,568.996704 542.936890,574.717224 
M412.046387,252.451843 
	C411.811401,252.687225 411.615875,252.995193 411.335724,253.147614 
	C395.282410,261.881470 381.822296,273.825806 369.451202,287.090729 
	C367.062561,289.651886 365.009460,292.525940 362.801575,295.255676 
	C363.037018,295.668549 363.272461,296.081421 363.507904,296.494324 
	C365.688019,295.816803 368.450439,295.760742 369.949371,294.356262 
	C377.155121,287.604462 383.717468,280.150696 391.070160,273.574402 
	C405.019623,261.098022 421.204987,252.218018 438.809448,246.011520 
	C458.955017,238.909164 479.603699,235.612457 501.111053,236.821564 
	C514.745972,237.588120 528.038635,239.539780 541.002014,243.548798 
	C561.531067,249.897583 579.983093,260.020844 596.547546,273.878754 
	C613.408630,287.984802 626.616211,304.846619 636.583313,324.254547 
	C643.874512,338.451965 648.249390,353.739166 650.873962,369.436554 
	C652.141724,377.019073 652.802002,384.779572 652.853943,392.465485 
	C652.897949,398.977051 651.518311,405.485931 651.036011,412.015747 
	C649.809998,428.612549 644.586243,444.121216 637.452759,458.895935 
	C624.276672,486.186035 604.664551,507.952911 578.843933,523.921814 
	C576.106750,525.614685 572.609802,526.606995 569.384155,526.850586 
	C565.185364,527.167725 562.739624,529.573853 561.900940,532.852844 
	C561.120361,535.904602 560.952454,539.957886 562.371948,542.555359 
	C565.525269,548.325745 575.817444,549.608093 580.025269,542.216309 
	C580.769836,540.908386 582.128479,539.830261 583.419983,538.971497 
	C599.304993,528.408997 614.305054,516.864502 626.549377,502.016205 
	C639.071228,486.831451 648.808960,470.016754 655.891357,451.744720 
	C661.424072,437.471008 665.174133,422.505096 665.745178,407.254974 
	C666.274353,393.122375 665.260742,378.850677 663.852661,364.747467 
	C662.097717,347.169830 656.024231,330.640869 647.878967,315.104218 
	C637.962402,296.189117 625.297058,279.312958 608.925537,265.194427 
	C598.106079,255.863937 586.635193,247.624496 574.046570,241.119858 
	C555.045105,231.301666 534.952759,224.842651 513.445618,222.881119 
	C496.087280,221.297974 478.760193,221.093323 461.681061,224.286026 
	C441.540649,228.050995 422.368195,234.897430 404.735504,245.664795 
	C387.688202,256.074677 372.312347,268.424957 359.624634,283.933472 
	C356.592957,287.639191 353.910034,291.630219 351.066711,295.490021 
	C351.336914,295.878326 351.607147,296.266632 351.877350,296.654938 
	C354.031891,295.812836 357.013550,295.599640 358.208618,294.027985 
	C366.892670,282.607117 376.332703,271.901794 388.058167,263.597015 
	C398.092957,256.489655 408.128876,249.002487 419.157837,243.782547 
	C431.325958,238.023468 444.383362,233.616119 457.504608,230.552353 
	C469.676331,227.710297 482.415375,226.977463 494.959503,226.185425 
	C501.241760,225.788742 507.635590,227.465485 513.997620,227.969055 
	C533.197998,229.488815 551.168030,235.427887 568.264893,243.831161 
	C587.444214,253.257965 604.206787,265.964600 618.648376,281.954315 
	C633.840454,298.774933 644.829956,317.807068 652.556885,338.983887 
	C658.779419,356.037567 661.177063,373.780334 661.768982,391.685181 
	C662.079651,401.079529 660.122009,410.567078 658.977844,419.986938 
	C657.303467,433.772125 652.892944,446.785339 647.198364,459.370636 
	C637.531250,480.735291 624.536926,499.730011 606.497437,514.941162 
	C598.539856,521.651123 590.236145,527.950684 582.040100,534.476013 
	C580.788696,532.627258 580.006470,531.471680 579.248108,530.351318 
	C586.700378,524.882751 594.472107,520.008667 601.274963,514.031738 
	C621.362671,496.382996 637.117188,475.366638 646.780884,450.321472 
	C656.372314,425.463715 659.087646,399.636353 656.095825,373.100311 
	C654.406677,358.117889 650.403015,343.909393 644.583130,330.078094 
	C632.777100,302.020386 613.971130,279.657532 589.428040,261.972992 
	C574.724060,251.378036 558.744141,243.190048 541.135498,238.702530 
	C531.570862,236.264999 521.809448,234.403687 512.030823,233.045609 
	C495.432678,230.740417 478.795227,231.379883 462.310211,234.357864 
	C444.817108,237.517975 428.392029,243.808533 412.046387,252.451843 
M635.000183,401.619720 
	C633.398499,411.227112 632.507629,421.020935 630.047302,430.403198 
	C624.907837,450.002075 615.072021,467.187714 601.976685,482.735840 
	C592.522522,493.960785 581.430176,502.908661 569.305054,510.788513 
	C568.707336,510.185699 568.109619,509.582886 567.511841,508.980072 
	C582.682312,498.382568 596.667175,486.673889 607.135620,471.433411 
	C617.722290,456.020905 625.462341,439.408508 629.411438,421.120087 
	C633.460144,402.370209 634.084534,383.246857 629.688110,364.760406 
	C601.338135,245.552582 459.560303,224.824707 392.264313,298.904297 
	C393.536072,299.642395 394.778687,300.363586 395.988495,301.065735 
	C398.073914,299.493286 400.244537,298.244110 401.931274,296.521179 
	C411.995758,286.240570 424.040405,278.976349 436.982666,272.993530 
	C460.791382,261.987457 485.583801,258.419586 511.642487,261.861115 
	C526.462708,263.818359 540.545227,267.878265 553.770264,274.489136 
	C568.409668,281.807007 581.841431,291.090088 592.315552,303.924561 
	C598.586670,311.608856 605.149841,319.256073 610.094360,327.782501 
	C622.838562,349.758636 628.685303,373.532135 627.162781,399.172882 
	C626.488770,410.523102 624.779053,421.510620 621.310974,432.259369 
	C612.741821,458.818176 596.915771,480.328064 574.988281,497.300049 
	C569.778503,501.332428 564.800293,506.161591 557.092957,506.250000 
	C552.533752,506.302307 550.331238,515.799683 553.172424,519.788696 
	C556.368225,524.275452 564.902527,524.753174 568.742676,518.738403 
	C569.657654,517.305420 570.903381,515.897339 572.327148,515.004272 
	C586.658569,506.014832 599.378601,495.060028 609.564087,481.654327 
	C624.147766,462.460022 634.431519,441.251678 638.209229,416.995605 
	C640.984924,399.173584 641.144592,381.422241 637.749939,363.938934 
	C632.765442,338.268372 620.856384,315.612427 603.473267,296.085022 
	C591.173096,282.267548 576.452759,271.347687 559.916626,263.018799 
	C543.538330,254.769424 526.105652,249.467346 507.887360,248.198563 
	C488.180634,246.826126 468.473969,247.847733 449.371063,253.988754 
	C431.600586,259.701447 415.310425,268.218933 400.769287,279.871674 
	C394.668488,284.760681 389.213898,290.456024 382.995850,296.220184 
	C385.593750,297.038330 387.076599,297.505310 388.559479,297.972290 
	C388.317078,297.535828 388.074707,297.099396 387.832306,296.662964 
	C398.977325,288.429443 409.526306,279.189941 421.386414,272.163452 
	C449.578949,255.460815 480.199341,249.442947 512.904907,253.885254 
	C528.678223,256.027679 543.739136,260.372681 557.761475,267.521240 
	C577.030884,277.344696 593.661133,290.646484 606.762024,308.181946 
	C627.302002,335.674500 637.307556,366.269318 635.000183,401.619720 
z"/>
<path fill="#FFC400" opacity="1.000000" stroke="none" 
	d="
M278.000000,494.000000 
	C278.000000,519.332764 277.813080,544.167542 278.071655,568.997620 
	C278.221497,583.388306 267.703033,598.375183 253.683701,602.929382 
	C230.512375,610.456604 208.782150,599.459351 202.239746,575.446899 
	C201.814606,573.886536 202.008286,572.142273 202.008087,570.483582 
	C201.998810,492.985291 202.081299,415.486877 201.926987,337.988892 
	C201.898346,323.605164 212.336594,308.678558 226.328094,304.064392 
	C239.127182,299.843475 251.394791,300.984222 263.019745,309.020569 
	C270.323608,303.698273 278.709351,301.777069 288.047577,301.880463 
	C317.376678,302.205261 346.713013,302.167908 376.043732,301.928284 
	C390.437225,301.810730 405.363739,312.411713 409.893616,326.380066 
	C411.176025,330.334473 411.907806,334.654205 411.914154,338.807892 
	C412.031342,415.472687 411.890015,492.138000 412.097748,568.802429 
	C412.136780,583.210815 401.379028,598.607666 387.396179,602.997742 
	C364.066162,610.322327 342.819336,599.176514 336.294556,575.634583 
	C335.862427,574.075439 336.010803,572.335266 336.010498,570.679321 
	C335.998138,508.514038 336.000000,446.348755 336.000000,384.183472 
	C336.000000,382.359772 336.000000,380.536072 336.000000,378.356476 
	C316.776459,378.356476 297.713013,378.356476 278.000000,378.356476 
	C278.000000,416.651825 278.000000,455.075928 278.000000,494.000000 
z"/>
<path fill="#FFC400" opacity="1.000000" stroke="none" 
	d="
M429.000000,421.000000 
	C429.000000,393.012329 429.180511,365.522980 428.926178,338.037659 
	C428.792847,323.628998 439.265991,308.798035 453.277039,304.117157 
	C457.212219,302.802429 461.540588,302.110321 465.693420,302.089386 
	C497.844849,301.927338 529.998474,302.148590 562.149292,301.932068 
	C576.434387,301.835907 591.476379,312.458466 595.958679,326.446381 
	C603.326233,349.439056 592.561035,371.016205 568.815735,377.635071 
	C567.258362,378.069153 565.530884,377.984009 563.882385,377.985992 
	C545.390686,378.008331 526.898987,378.000366 508.407257,378.000549 
	C507.443512,378.000549 506.479797,378.000549 505.000000,378.000549 
	C505.000000,380.128632 505.000000,381.905609 505.000000,383.682587 
	C505.000000,445.321625 504.883698,506.960999 505.084503,568.599365 
	C505.132721,583.398438 495.120697,598.094604 481.076843,602.834351 
	C458.467712,610.464661 436.045319,600.327087 429.225250,575.395996 
	C428.798950,573.837708 429.007812,572.091553 429.007507,570.432800 
	C428.998291,520.788513 429.000000,471.144257 429.000000,421.000000 
z"/>
<path fill="#FFC400" opacity="1.000000" stroke="none" 
	d="
M109.000000,431.000000 
	C109.000008,399.667389 109.167061,368.833435 108.926186,338.002716 
	C108.813744,323.611206 119.326912,308.717743 133.329849,304.111481 
	C137.275360,302.813599 141.596939,302.123230 145.753342,302.090698 
	C169.569534,301.904236 193.387924,302.000031 217.153580,302.000031 
	C212.805450,306.175018 208.044128,309.923340 204.322281,314.514343 
	C198.805161,321.319824 197.285141,329.804626 197.081497,338.310120 
	C196.770676,351.293091 197.000031,364.288971 197.000031,377.746948 
	C193.122162,377.746948 189.386276,377.746948 185.000000,377.746948 
	C185.000000,380.132935 185.000000,382.061157 185.000000,383.989410 
	C185.000000,445.654663 184.899078,507.320190 185.074997,568.984924 
	C185.116058,583.380493 174.719009,598.363770 160.696198,602.926575 
	C137.581406,610.447693 115.808701,599.520874 109.243477,575.459595 
	C108.817757,573.899414 109.008720,572.155334 109.008354,570.496826 
	C108.998016,524.164551 109.000023,477.832275 109.000000,431.000000 
z"/>
<path fill="#FFC400" opacity="1.000000" stroke="none" 
	d="
M542.716248,574.355957 
	C541.169800,568.996704 540.090210,563.915588 538.440552,559.026855 
	C537.110718,555.085754 533.723022,554.147522 530.972595,556.658264 
	C530.258240,557.310303 529.754639,558.873474 529.999573,559.793091 
	C533.155762,571.644714 536.192505,583.544189 539.983337,595.196167 
	C540.678711,597.333557 544.434326,599.284973 547.065430,599.774658 
	C550.239807,600.365479 552.153137,597.720764 553.028137,594.527954 
	C554.639832,588.647156 556.449890,582.820740 558.177368,576.971680 
	C558.644043,576.907410 559.110718,576.843140 559.577393,576.778870 
	C560.710999,580.297424 561.923645,583.793091 562.953064,587.341858 
	C563.762756,590.133301 563.777222,593.333252 565.209473,595.710388 
	C566.368896,597.634766 569.212036,599.837585 571.129883,599.684265 
	C573.514099,599.493835 577.083740,597.466614 577.767639,595.433960 
	C581.575317,584.117920 584.624084,572.547913 588.057739,561.102356 
	C588.417847,559.902222 589.369141,558.547974 590.432129,557.939819 
	C606.569275,548.707153 621.347839,537.651306 634.177856,524.224792 
	C658.377319,498.900269 674.836243,469.119110 682.754456,435.004761 
	C685.360901,423.775635 686.121643,412.040985 686.911682,400.481842 
	C689.269958,365.975555 681.106628,333.715454 665.026978,303.319977 
	C657.992859,290.023407 649.071472,278.086884 639.327209,266.603424 
	C628.687805,254.065063 616.221069,243.683136 602.818420,234.589020 
	C583.675903,221.600311 562.767578,211.834427 539.985229,207.169693 
	C527.240540,204.560196 514.179321,203.292236 501.199097,202.080948 
	C477.123627,199.834290 453.746979,204.122589 431.016418,211.601410 
	C408.816132,218.905792 388.687836,230.227493 370.431549,244.960983 
	C353.428864,258.682770 339.150055,274.647552 327.798706,293.323700 
	C326.763550,295.026794 323.813324,295.565887 321.752411,296.645508 
	C321.296661,296.083099 320.840881,295.520721 320.385101,294.958313 
	C325.645660,287.418793 330.537079,279.583923 336.268555,272.421234 
	C342.231964,264.968719 348.559540,257.688110 355.514801,251.172363 
	C372.854401,234.928543 392.414124,222.033737 414.429077,212.703568 
	C431.273682,205.564636 448.634216,200.097092 466.658112,198.335815 
	C482.524017,196.785400 498.669769,197.643005 514.673889,198.087524 
	C531.392090,198.551880 547.279907,203.330521 562.920105,208.946548 
	C583.581726,216.365662 602.272156,227.137680 619.455750,240.831833 
	C644.131836,260.497101 662.687439,284.823853 675.655884,313.397308 
	C682.834595,329.214264 688.430847,345.716461 689.879517,363.144135 
	C691.151123,378.440765 692.540039,393.894501 691.695740,409.158203 
	C690.628479,428.453522 685.867798,447.265320 678.342896,465.223724 
	C669.727661,485.784424 658.205444,504.430573 643.438721,521.264526 
	C629.450684,537.210754 613.265686,550.182617 595.202087,561.060669 
	C593.771057,561.922424 592.585999,563.813171 592.068848,565.469849 
	C588.942871,575.484192 586.151611,585.602966 583.034973,595.620300 
	C580.706360,603.104797 578.125122,604.485901 568.759888,603.999146 
	C563.934875,603.748413 561.239746,600.910706 559.846619,594.670227 
	C559.795105,594.439270 559.392578,594.286682 558.721558,593.755554 
	C557.950012,595.933533 557.579102,598.176147 556.452454,599.934570 
	C553.202637,605.007019 547.719727,604.763184 543.053955,603.716492 
	C540.057007,603.044250 536.219849,600.169861 535.258545,597.411621 
	C531.331421,586.143860 528.243103,574.574341 525.102966,563.045959 
	C523.705933,557.916931 526.502136,551.961975 530.205750,551.021790 
	C536.547241,549.411926 541.690674,552.150635 543.716858,558.405029 
	C544.757996,561.618652 545.490784,564.932251 546.534790,568.845093 
	C547.450317,564.980286 548.205261,561.661194 549.026367,558.358704 
	C550.193542,553.664307 553.992737,550.955200 559.260437,550.999878 
	C564.142456,551.041382 567.842407,553.834900 568.973328,558.379700 
	C569.363403,559.947083 569.613525,561.549805 570.015442,563.113770 
	C570.374451,564.510315 570.854675,565.875793 571.548523,568.118347 
	C572.167358,565.640686 572.594788,563.913025 573.030579,562.187500 
	C574.529480,556.252747 577.830811,552.260132 583.355835,548.946594 
	C593.626587,542.786926 603.452881,535.771973 612.919800,528.412842 
	C627.304688,517.230774 638.830261,503.366760 648.563171,487.975128 
	C660.541931,469.031860 669.259827,448.762054 672.911377,426.592743 
	C674.794800,415.158081 676.845642,403.543671 676.712769,392.034851 
	C676.532654,376.426758 674.388489,360.902893 670.149048,345.660004 
	C663.434998,321.519928 652.400513,299.659576 636.674133,280.340271 
	C618.966980,258.587555 597.420654,241.559830 571.696777,229.867920 
	C555.958252,222.714447 539.854248,217.113312 522.653015,215.015793 
	C513.398254,213.887253 504.072876,211.908417 494.853424,212.259369 
	C481.502136,212.767624 468.143890,214.572449 454.923004,216.671021 
	C436.330353,219.622284 419.123932,226.969650 402.905640,236.199783 
	C393.070496,241.797134 383.876862,248.677505 374.963928,255.703201 
	C361.329834,266.450439 349.992706,279.417267 340.331879,293.888763 
	C339.258301,295.497009 336.225372,295.797272 334.101135,296.704132 
	C333.783142,296.292664 333.465149,295.881195 333.147186,295.469727 
	C337.513672,289.398193 341.528412,283.032349 346.314301,277.311707 
	C359.350769,261.729004 374.076996,247.972382 391.373535,237.098862 
	C412.017731,224.120819 434.241394,215.526672 458.233185,210.815674 
	C475.322388,207.460052 492.480438,207.303253 509.555664,208.259399 
	C528.197632,209.303284 546.319946,213.902435 563.797607,220.896057 
	C581.096680,227.818237 597.240601,236.789490 611.655212,248.437912 
	C628.740662,262.244690 643.360718,278.446838 654.810120,297.374512 
	C665.379028,314.846527 673.194824,333.408112 677.073486,353.470245 
	C678.833435,362.573944 680.659607,371.834564 680.779480,381.045807 
	C680.959534,394.880951 680.372986,408.815948 678.805420,422.559448 
	C677.133179,437.221497 672.425537,451.255920 666.618835,464.871246 
	C660.214844,479.887177 651.912598,493.846588 641.700134,506.462158 
	C627.987671,523.401428 612.091248,538.120911 593.209595,549.328918 
	C590.426697,550.980835 587.636963,552.664673 584.700867,554.006470 
	C577.297852,557.389648 577.893982,564.795532 576.047485,570.923462 
	C574.571167,575.822876 573.505737,580.846069 572.257935,585.814331 
	C571.783936,585.856506 571.309937,585.898743 570.835938,585.940918 
	C569.560608,581.448669 568.231995,576.970581 567.025696,572.459900 
	C565.940186,568.400635 565.021729,564.296936 563.967041,560.229126 
	C563.241882,557.432312 561.757690,554.918518 558.526428,556.156006 
	C556.701904,556.854858 554.694641,558.868042 554.113159,560.712769 
	C551.506897,568.980530 549.383057,577.400330 547.085083,585.765259 
	C546.637512,585.824280 546.189941,585.883301 545.742371,585.942261 
	C544.807190,582.200623 543.872009,578.458923 542.716248,574.355957 
z"/>
<path fill="#FFC400" opacity="1.000000" stroke="none" 
	d="
M412.364929,252.248016 
	C428.392029,243.808533 444.817108,237.517975 462.310211,234.357864 
	C478.795227,231.379883 495.432678,230.740417 512.030823,233.045609 
	C521.809448,234.403687 531.570862,236.264999 541.135498,238.702530 
	C558.744141,243.190048 574.724060,251.378036 589.428040,261.972992 
	C613.971130,279.657532 632.777100,302.020386 644.583130,330.078094 
	C650.403015,343.909393 654.406677,358.117889 656.095825,373.100311 
	C659.087646,399.636353 656.372314,425.463715 646.780884,450.321472 
	C637.117188,475.366638 621.362671,496.382996 601.274963,514.031738 
	C594.472107,520.008667 586.700378,524.882751 579.248108,530.351318 
	C580.006470,531.471680 580.788696,532.627258 582.040100,534.476013 
	C590.236145,527.950684 598.539856,521.651123 606.497437,514.941162 
	C624.536926,499.730011 637.531250,480.735291 647.198364,459.370636 
	C652.892944,446.785339 657.303467,433.772125 658.977844,419.986938 
	C660.122009,410.567078 662.079651,401.079529 661.768982,391.685181 
	C661.177063,373.780334 658.779419,356.037567 652.556885,338.983887 
	C644.829956,317.807068 633.840454,298.774933 618.648376,281.954315 
	C604.206787,265.964600 587.444214,253.257965 568.264893,243.831161 
	C551.168030,235.427887 533.197998,229.488815 513.997620,227.969055 
	C507.635590,227.465485 501.241760,225.788742 494.959503,226.185425 
	C482.415375,226.977463 469.676331,227.710297 457.504608,230.552353 
	C444.383362,233.616119 431.325958,238.023468 419.157837,243.782547 
	C408.128876,249.002487 398.092957,256.489655 388.058167,263.597015 
	C376.332703,271.901794 366.892670,282.607117 358.208618,294.027985 
	C357.013550,295.599640 354.031891,295.812836 351.877350,296.654938 
	C351.607147,296.266632 351.336914,295.878326 351.066711,295.490021 
	C353.910034,291.630219 356.592957,287.639191 359.624634,283.933472 
	C372.312347,268.424957 387.688202,256.074677 404.735504,245.664795 
	C422.368195,234.897430 441.540649,228.050995 461.681061,224.286026 
	C478.760193,221.093323 496.087280,221.297974 513.445618,222.881119 
	C534.952759,224.842651 555.045105,231.301666 574.046570,241.119858 
	C586.635193,247.624496 598.106079,255.863937 608.925537,265.194427 
	C625.297058,279.312958 637.962402,296.189117 647.878967,315.104218 
	C656.024231,330.640869 662.097717,347.169830 663.852661,364.747467 
	C665.260742,378.850677 666.274353,393.122375 665.745178,407.254974 
	C665.174133,422.505096 661.424072,437.471008 655.891357,451.744720 
	C648.808960,470.016754 639.071228,486.831451 626.549377,502.016205 
	C614.305054,516.864502 599.304993,528.408997 583.419983,538.971497 
	C582.128479,539.830261 580.769836,540.908386 580.025269,542.216309 
	C575.817444,549.608093 565.525269,548.325745 562.371948,542.555359 
	C560.952454,539.957886 561.120361,535.904602 561.900940,532.852844 
	C562.739624,529.573853 565.185364,527.167725 569.384155,526.850586 
	C572.609802,526.606995 576.106750,525.614685 578.843933,523.921814 
	C604.664551,507.952911 624.276672,486.186035 637.452759,458.895935 
	C644.586243,444.121216 649.809998,428.612549 651.036011,412.015747 
	C651.518311,405.485931 652.897949,398.977051 652.853943,392.465485 
	C652.802002,384.779572 652.141724,377.019073 650.873962,369.436554 
	C648.249390,353.739166 643.874512,338.451965 636.583313,324.254547 
	C626.616211,304.846619 613.408630,287.984802 596.547546,273.878754 
	C579.983093,260.020844 561.531067,249.897583 541.002014,243.548798 
	C528.038635,239.539780 514.745972,237.588120 501.111053,236.821564 
	C479.603699,235.612457 458.955017,238.909164 438.809448,246.011520 
	C421.204987,252.218018 405.019623,261.098022 391.070160,273.574402 
	C383.717468,280.150696 377.155121,287.604462 369.949371,294.356262 
	C368.450439,295.760742 365.688019,295.816803 363.507904,296.494324 
	C363.272461,296.081421 363.037018,295.668549 362.801575,295.255676 
	C365.009460,292.525940 367.062561,289.651886 369.451202,287.090729 
	C381.822296,273.825806 395.282410,261.881470 411.335724,253.147614 
	C411.615875,252.995193 411.811401,252.687225 412.364929,252.248016 
M566.992554,533.516479 
	C564.120483,536.450562 565.218140,538.983948 567.829163,541.305664 
	C570.174377,543.390930 572.411987,543.048218 574.576538,540.928040 
	C576.809265,538.741089 577.615173,536.431091 575.307068,533.830750 
	C572.988586,531.218750 570.453369,530.123840 566.992554,533.516479 
z"/>
<path fill="#FFC400" opacity="1.000000" stroke="none" 
	d="
M635.000183,401.150085 
	C637.307556,366.269318 627.302002,335.674500 606.762024,308.181946 
	C593.661133,290.646484 577.030884,277.344696 557.761475,267.521240 
	C543.739136,260.372681 528.678223,256.027679 512.904907,253.885254 
	C480.199341,249.442947 449.578949,255.460815 421.386414,272.163452 
	C409.526306,279.189941 398.977325,288.429443 387.832306,296.662964 
	C388.074707,297.099396 388.317078,297.535828 388.559479,297.972290 
	C387.076599,297.505310 385.593750,297.038330 382.995850,296.220184 
	C389.213898,290.456024 394.668488,284.760681 400.769287,279.871674 
	C415.310425,268.218933 431.600586,259.701447 449.371063,253.988754 
	C468.473969,247.847733 488.180634,246.826126 507.887360,248.198563 
	C526.105652,249.467346 543.538330,254.769424 559.916626,263.018799 
	C576.452759,271.347687 591.173096,282.267548 603.473267,296.085022 
	C620.856384,315.612427 632.765442,338.268372 637.749939,363.938934 
	C641.144592,381.422241 640.984924,399.173584 638.209229,416.995605 
	C634.431519,441.251678 624.147766,462.460022 609.564087,481.654327 
	C599.378601,495.060028 586.658569,506.014832 572.327148,515.004272 
	C570.903381,515.897339 569.657654,517.305420 568.742676,518.738403 
	C564.902527,524.753174 556.368225,524.275452 553.172424,519.788696 
	C550.331238,515.799683 552.533752,506.302307 557.092957,506.250000 
	C564.800293,506.161591 569.778503,501.332428 574.988281,497.300049 
	C596.915771,480.328064 612.741821,458.818176 621.310974,432.259369 
	C624.779053,421.510620 626.488770,410.523102 627.162781,399.172882 
	C628.685303,373.532135 622.838562,349.758636 610.094360,327.782501 
	C605.149841,319.256073 598.586670,311.608856 592.315552,303.924561 
	C581.841431,291.090088 568.409668,281.807007 553.770264,274.489136 
	C540.545227,267.878265 526.462708,263.818359 511.642487,261.861115 
	C485.583801,258.419586 460.791382,261.987457 436.982666,272.993530 
	C424.040405,278.976349 411.995758,286.240570 401.931274,296.521179 
	C400.244537,298.244110 398.073914,299.493286 395.988495,301.065735 
	C394.778687,300.363586 393.536072,299.642395 392.264313,298.904297 
	C459.560303,224.824707 601.338135,245.552582 629.688110,364.760406 
	C634.084534,383.246857 633.460144,402.370209 629.411438,421.120087 
	C625.462341,439.408508 617.722290,456.020905 607.135620,471.433411 
	C596.667175,486.673889 582.682312,498.382568 567.511841,508.980072 
	C568.109619,509.582886 568.707336,510.185699 569.305054,510.788513 
	C581.430176,502.908661 592.522522,493.960785 601.976685,482.735840 
	C615.072021,467.187714 624.907837,450.002075 630.047302,430.403198 
	C632.507629,421.020935 633.398499,411.227112 635.000183,401.150085 
M561.700378,518.043091 
	C562.490173,516.478882 563.992126,514.840088 563.838745,513.374573 
	C563.721497,512.254456 561.154297,510.297577 560.306458,510.583008 
	C558.720581,511.116852 557.591675,513.007874 556.272644,514.334290 
	C557.872253,515.690918 559.471802,517.047485 561.700378,518.043091 
z"/>
<path fill="#FFC400" opacity="1.000000" stroke="none" 
	d="
M182.833328,233.000320 
	C183.552887,234.947769 184.873459,236.888168 184.896378,238.843781 
	C185.070908,253.736908 184.992004,268.632996 184.992004,283.979889 
	C171.043671,283.979889 157.485565,283.979889 143.435989,283.540344 
	C141.867630,282.097626 140.922287,280.723358 139.649734,280.272339 
	C139.134048,280.089569 137.905014,281.919373 137.000580,282.833374 
	C136.401352,282.785553 135.802155,282.737732 135.088104,281.997803 
	C134.253265,275.252747 130.607101,273.712280 124.888840,277.045166 
	C123.987564,276.596832 123.086288,276.148529 122.241005,275.100830 
	C122.584221,273.018158 122.871429,271.534882 123.158646,270.051575 
	C121.402008,270.382782 119.645370,270.713989 117.888733,271.045227 
	C116.188805,268.450470 114.488876,265.855713 112.809906,262.719543 
	C113.262703,261.405396 113.694542,260.632721 114.126389,259.860016 
	C113.139816,259.573242 112.153252,259.286438 111.166679,258.999664 
	C107.499039,250.920670 108.627220,242.652145 110.942520,234.169861 
	C115.145355,234.434937 117.092712,232.469772 117.889717,229.535065 
	C118.832825,226.062378 119.278297,222.454559 119.939461,218.905304 
	C119.939461,218.905304 119.977585,218.977829 120.362122,218.970886 
	C124.814507,218.911926 128.699112,218.642532 127.957825,212.885345 
	C128.762115,212.310684 129.566406,211.736023 130.761063,211.486923 
	C132.483490,212.606110 134.435333,214.398438 135.041504,214.022293 
	C137.820267,212.297882 143.459229,214.184128 143.000351,208.166672 
	C145.044876,208.117874 147.089401,208.069092 149.592514,208.468719 
	C151.078476,210.242859 151.839401,212.066040 153.189499,212.789185 
	C155.874161,214.227081 159.036865,214.773361 161.719147,216.214539 
	C165.075012,218.017624 167.957047,218.075790 170.753189,215.394241 
	C170.753189,215.394241 170.986191,215.552811 170.930756,216.077057 
	C171.079910,218.543793 171.284500,220.486282 171.489105,222.428757 
	C173.007141,221.914597 174.525177,221.400421 176.043198,220.886246 
	C177.955185,223.690750 179.867172,226.495239 181.505066,229.722000 
	C180.740707,230.819962 180.250473,231.495667 179.760223,232.171387 
	C180.784592,232.447678 181.808960,232.723999 182.833328,233.000320 
M135.383881,235.280151 
	C135.626511,235.488220 135.831879,235.728165 135.500000,236.000000 
	C135.500000,236.000000 135.000000,236.000000 134.285645,236.308777 
	C131.445587,237.130737 127.806458,236.692200 127.243370,241.069351 
	C127.184578,241.526367 125.542732,241.767303 124.644394,242.130768 
	C118.999176,244.414841 115.182732,251.829041 117.246071,256.544373 
	C118.659004,256.298920 120.072449,256.053375 120.345329,256.005981 
	C120.532150,258.662720 120.113846,261.088440 120.974808,262.909302 
	C122.139374,265.372314 124.286034,267.370972 126.011337,269.568848 
	C127.021873,268.674500 128.032410,267.780182 129.967224,266.986298 
	C134.558456,266.986298 139.149673,266.986298 143.720276,266.986298 
	C143.720276,262.991608 143.720276,259.579468 143.720276,256.148224 
	C141.628387,256.033081 139.814209,255.933228 138.042816,255.109741 
	C138.042816,252.623886 138.042816,250.138016 138.042816,246.842834 
	C134.509232,248.490112 131.457169,248.703476 133.089874,252.774246 
	C134.185883,255.506851 132.432068,256.094086 130.265320,255.467865 
	C127.732567,254.735870 127.064598,253.485397 128.429016,250.650574 
	C130.377457,246.602325 136.084747,244.682281 135.737640,238.963348 
	C138.158432,238.975571 140.579208,238.987778 143.215790,239.648788 
	C145.941345,241.074158 148.593140,242.690536 151.443924,243.791702 
	C152.163834,244.069763 153.519516,242.701859 154.583038,242.090332 
	C154.055359,241.393555 153.527679,240.696777 152.860107,239.314789 
	C150.906479,236.876526 148.952850,234.438263 146.781876,231.789017 
	C146.476700,231.650894 146.216187,231.721024 145.223328,232.016190 
	C142.482208,232.677460 139.741104,233.338730 137.000000,233.500000 
	C137.000000,233.500000 137.000000,233.000000 137.039352,232.267441 
	C138.578934,230.486267 140.304794,228.827637 141.587692,226.877594 
	C142.347702,225.722336 143.187225,223.455429 142.648529,222.811584 
	C140.335129,220.046585 136.659332,221.088898 135.105957,224.390488 
	C134.454834,225.774414 133.057877,226.807434 131.667847,227.699814 
	C131.291794,227.750763 130.915756,227.801712 130.539703,227.852661 
	C130.693130,228.235107 130.846558,228.617554 131.130905,229.666122 
	C132.420609,231.444077 133.710297,233.222046 135.383881,235.280151 
M156.599228,253.148941 
	C158.881744,250.465942 161.164261,247.782928 163.430786,245.118729 
	C160.352325,243.424789 152.394913,247.751801 151.072739,251.797363 
	C150.387970,253.892639 149.066681,255.778519 148.366577,257.870636 
	C147.898636,259.268982 147.725418,262.140900 147.917099,262.184814 
	C153.268494,263.410675 151.085068,267.146515 150.342728,270.422180 
	C154.405426,271.006317 155.042557,268.380920 155.808182,265.825439 
	C156.260193,264.316742 156.416534,262.306549 157.463989,261.460693 
	C161.987915,257.807556 162.074051,257.573700 156.599228,253.148941 
M176.793381,259.362701 
	C177.508347,257.527100 178.223328,255.691528 179.213211,253.150101 
	C175.192108,253.639755 172.389603,253.981018 170.235809,254.243286 
	C168.026062,255.598923 166.215607,256.709595 164.385193,257.832520 
	C166.664352,262.599243 168.266983,262.894104 176.793381,259.362701 
M159.629791,230.595810 
	C155.059525,233.506012 158.857437,236.832550 159.592911,239.682999 
	C159.906128,240.896957 162.965469,241.402374 165.200882,242.423462 
	C165.378967,233.993713 165.378967,233.993713 159.629791,230.595810 
M173.355103,268.033356 
	C172.283875,266.795441 171.212646,265.557495 170.141418,264.319580 
	C169.673279,265.313446 168.597473,266.518951 168.855515,267.259949 
	C169.522217,269.174469 170.749023,270.976990 173.355103,268.033356 
M156.679703,221.225906 
	C157.241119,220.283096 157.802521,219.340286 158.363937,218.397461 
	C157.368912,218.092026 156.242035,217.350571 155.415009,217.600677 
	C154.544388,217.863983 153.960388,219.075150 153.251160,219.872147 
	C154.172867,220.400284 155.094574,220.928421 156.679703,221.225906 
M167.497787,240.528458 
	C167.497787,240.528458 167.481522,240.486359 167.497787,240.528458 
z"/>
<path fill="#FFC400" opacity="1.000000" stroke="none" 
	d="
M170.441650,215.214691 
	C167.957047,218.075790 165.075012,218.017624 161.719147,216.214539 
	C159.036865,214.773361 155.874161,214.227081 153.189499,212.789185 
	C151.839401,212.066040 151.078476,210.242859 150.025375,208.541916 
	C157.729904,207.466400 163.913223,211.299942 170.441650,215.214691 
z"/>
<path fill="#FFC400" opacity="1.000000" stroke="none" 
	d="
M119.624039,219.041092 
	C119.278297,222.454559 118.832825,226.062378 117.889717,229.535065 
	C117.092712,232.469772 115.145355,234.434937 111.288574,233.965698 
	C113.693054,229.030975 116.500832,224.103928 119.624039,219.041092 
z"/>
<path fill="#FFC400" opacity="1.000000" stroke="none" 
	d="
M142.587463,208.093536 
	C143.459229,214.184128 137.820267,212.297882 135.041504,214.022293 
	C134.435333,214.398438 132.483490,212.606110 131.076050,211.489548 
	C134.725311,210.117874 138.449936,209.069138 142.587463,208.093536 
z"/>
<path fill="#FFC400" opacity="1.000000" stroke="none" 
	d="
M125.035698,277.371094 
	C130.607101,273.712280 134.253265,275.252747 134.965607,281.710327 
	C131.699493,280.642273 128.441025,279.169617 125.035698,277.371094 
z"/>
<path fill="#FFC400" opacity="1.000000" stroke="none" 
	d="
M175.920990,220.583939 
	C174.525177,221.400421 173.007141,221.914597 171.489105,222.428757 
	C171.284500,220.486282 171.079910,218.543793 170.937943,216.217804 
	C172.599960,217.316727 174.199371,218.799179 175.920990,220.583939 
z"/>
<path fill="#FFC400" opacity="1.000000" stroke="none" 
	d="
M127.603485,212.938782 
	C128.699112,218.642532 124.814507,218.911926 120.325867,218.951813 
	C122.353088,216.957199 124.801109,214.974716 127.603485,212.938782 
z"/>
<path fill="#FFC400" opacity="1.000000" stroke="none" 
	d="
M118.013130,271.345337 
	C119.645370,270.713989 121.402008,270.382782 123.158646,270.051575 
	C122.871429,271.534882 122.584221,273.018158 122.124084,274.804382 
	C120.679947,273.953339 119.408737,272.799408 118.013130,271.345337 
z"/>
<path fill="#FFC400" opacity="1.000000" stroke="none" 
	d="
M137.354584,283.010803 
	C137.905014,281.919373 139.134048,280.089569 139.649734,280.272339 
	C140.922287,280.723358 141.867630,282.097626 142.972427,283.467041 
	C141.236420,283.618286 139.472504,283.403259 137.354584,283.010803 
z"/>
<path fill="#FFC400" opacity="1.000000" stroke="none" 
	d="
M182.903503,232.669800 
	C181.808960,232.723999 180.784592,232.447678 179.760223,232.171387 
	C180.250473,231.495667 180.740707,230.819962 181.532135,230.072464 
	C182.213470,230.780212 182.593582,231.559753 182.903503,232.669800 
z"/>
<path fill="#FFC400" opacity="1.000000" stroke="none" 
	d="
M111.096756,259.337280 
	C112.153252,259.286438 113.139816,259.573242 114.126389,259.860016 
	C113.694542,260.632721 113.262703,261.405396 112.594055,262.449768 
	C111.913773,261.705963 111.470299,260.690430 111.096756,259.337280 
z"/>
<path fill="#000000" opacity="1.000000" stroke="none" 
	d="
M567.255554,533.253601 
	C570.453369,530.123840 572.988586,531.218750 575.307068,533.830750 
	C577.615173,536.431091 576.809265,538.741089 574.576538,540.928040 
	C572.411987,543.048218 570.174377,543.390930 567.829163,541.305664 
	C565.218140,538.983948 564.120483,536.450562 567.255554,533.253601 
z"/>
<path fill="#000000" opacity="1.000000" stroke="none" 
	d="
M561.385864,518.223633 
	C559.471802,517.047485 557.872253,515.690918 556.272583,514.334229 
	C557.591675,513.007874 558.720581,511.116852 560.306458,510.583008 
	C561.154297,510.297577 563.721497,512.254456 563.838745,513.374573 
	C563.992126,514.840088 562.490173,516.478882 561.385864,518.223633 
z"/>
<path fill="#FFC400" opacity="1.000000" stroke="none" 
	d="
M135.000000,239.000000 
	C136.084747,244.682281 130.377457,246.602325 128.429016,250.650574 
	C127.064598,253.485397 127.732567,254.735870 130.265320,255.467865 
	C132.432068,256.094086 134.185883,255.506851 133.089874,252.774246 
	C131.457169,248.703476 134.509232,248.490112 138.042816,246.842834 
	C138.042816,250.138016 138.042816,252.623886 137.700027,255.544891 
	C136.737900,256.042816 136.118576,256.105560 135.499237,256.168304 
	C135.666031,256.501068 135.832809,256.833832 135.992249,257.531494 
	C135.200150,259.158264 134.419998,260.423035 133.629425,261.681244 
	C132.757782,263.068390 131.876572,264.449554 130.697525,265.847046 
	C130.048584,265.659821 129.701660,265.458862 129.354736,265.257935 
	C129.250809,265.800568 129.146881,266.343231 129.042938,266.885864 
	C128.032410,267.780182 127.021873,268.674500 126.011337,269.568848 
	C124.286034,267.370972 122.139374,265.372314 120.974808,262.909302 
	C120.113846,261.088440 120.532150,258.662720 120.345329,256.005981 
	C120.072449,256.053375 118.659004,256.298920 117.246071,256.544373 
	C115.182732,251.829041 118.999176,244.414841 124.644394,242.130768 
	C125.542732,241.767303 127.184578,241.526367 127.243370,241.069351 
	C127.806458,236.692200 131.445587,237.130737 134.642822,236.529388 
	C135.000000,237.500000 135.000000,238.250000 135.000000,239.000000 
z"/>
<path fill="#FFC400" opacity="1.000000" stroke="none" 
	d="
M156.825287,253.406555 
	C162.074051,257.573700 161.987915,257.807556 157.463989,261.460693 
	C156.416534,262.306549 156.260193,264.316742 155.808182,265.825439 
	C155.042557,268.380920 154.405426,271.006317 150.342728,270.422180 
	C151.085068,267.146515 153.268494,263.410675 147.917099,262.184814 
	C147.725418,262.140900 147.898636,259.268982 148.366577,257.870636 
	C149.066681,255.778519 150.387970,253.892639 151.072739,251.797363 
	C152.394913,247.751801 160.352325,243.424789 163.430786,245.118729 
	C161.164261,247.782928 158.881744,250.465942 156.825287,253.406555 
z"/>
<path fill="#FFC400" opacity="1.000000" stroke="none" 
	d="
M135.368820,238.981674 
	C135.000000,238.250000 135.000000,237.500000 135.000000,236.375000 
	C135.000000,236.000000 135.500000,236.000000 135.949997,235.794586 
	C136.600006,235.059448 136.800003,234.529724 137.000000,234.000000 
	C139.741104,233.338730 142.482208,232.677460 145.861542,232.007980 
	C146.499756,231.999771 146.999222,232.000000 146.999222,232.000000 
	C148.952850,234.438263 150.906479,236.876526 152.660309,239.869385 
	C150.966553,240.157455 149.477554,239.857651 147.977280,239.633362 
	C146.323593,239.386108 144.659531,239.208145 143.000000,239.000000 
	C140.579208,238.987778 138.158432,238.975571 135.368820,238.981674 
z"/>
<path fill="#FFC400" opacity="1.000000" stroke="none" 
	d="
M176.483780,259.589600 
	C168.266983,262.894104 166.664352,262.599243 164.385193,257.832520 
	C166.215607,256.709595 168.026062,255.598923 170.235809,254.243286 
	C172.389603,253.981018 175.192108,253.639755 179.213211,253.150101 
	C178.223328,255.691528 177.508347,257.527100 176.483780,259.589600 
z"/>
<path fill="#FFC400" opacity="1.000000" stroke="none" 
	d="
M132.000000,228.000000 
	C133.057877,226.807434 134.454834,225.774414 135.105957,224.390488 
	C136.659332,221.088898 140.335129,220.046585 142.648529,222.811584 
	C143.187225,223.455429 142.347702,225.722336 141.587692,226.877594 
	C140.304794,228.827637 138.578934,230.486267 136.724915,232.715607 
	C135.940308,233.775848 135.470154,234.387924 135.000000,235.000000 
	C133.710297,233.222046 132.420609,231.444077 131.257385,229.192993 
	C131.626511,228.511780 131.831879,228.271835 132.000000,228.000000 
z"/>
<path fill="#FFC400" opacity="1.000000" stroke="none" 
	d="
M159.828705,230.366516 
	C165.378967,233.993713 165.378967,233.993713 165.200882,242.423462 
	C162.965469,241.402374 159.906128,240.896957 159.592911,239.682999 
	C158.857437,236.832550 155.059525,233.506012 159.828705,230.366516 
z"/>
<path fill="#FFC400" opacity="1.000000" stroke="none" 
	d="
M143.107895,239.324402 
	C144.659531,239.208145 146.323593,239.386108 147.977280,239.633362 
	C149.477554,239.857651 150.966553,240.157455 152.730255,240.211975 
	C153.527679,240.696777 154.055359,241.393555 154.583038,242.090332 
	C153.519516,242.701859 152.163834,244.069763 151.443924,243.791702 
	C148.593140,242.690536 145.941345,241.074158 143.107895,239.324402 
z"/>
<path fill="#000000" opacity="1.000000" stroke="none" 
	d="
M129.505096,266.936096 
	C129.146881,266.343231 129.250809,265.800568 129.354736,265.257935 
	C129.701660,265.458862 130.048584,265.659821 131.155869,265.920166 
	C135.521332,265.979584 139.126434,265.979584 142.710541,265.979584 
	C142.710541,262.689667 142.710541,259.948700 142.710541,257.166595 
	C140.281082,257.166595 138.140335,257.166595 135.999603,257.166595 
	C135.832809,256.833832 135.666031,256.501068 135.499237,256.168304 
	C136.118576,256.105560 136.737900,256.042816 137.678635,255.906708 
	C139.814209,255.933228 141.628387,256.033081 143.720276,256.148224 
	C143.720276,259.579468 143.720276,262.991608 143.720276,266.986298 
	C139.149673,266.986298 134.558456,266.986298 129.505096,266.936096 
z"/>
<path fill="#FFC400" opacity="1.000000" stroke="none" 
	d="
M173.201813,268.334473 
	C170.749023,270.976990 169.522217,269.174469 168.855515,267.259949 
	C168.597473,266.518951 169.673279,265.313446 170.141418,264.319580 
	C171.212646,265.557495 172.283875,266.795441 173.201813,268.334473 
z"/>
<path fill="#FFC400" opacity="1.000000" stroke="none" 
	d="
M156.347992,221.341217 
	C155.094574,220.928421 154.172867,220.400284 153.251160,219.872147 
	C153.960388,219.075150 154.544388,217.863983 155.415009,217.600677 
	C156.242035,217.350571 157.368912,218.092026 158.363922,218.397461 
	C157.802521,219.340286 157.241119,220.283096 156.347992,221.341217 
z"/>
<path fill="#FFC400" opacity="1.000000" stroke="none" 
	d="
M135.191940,235.140076 
	C135.470154,234.387924 135.940308,233.775848 136.705231,233.081879 
	C137.000000,233.000000 137.000000,233.500000 137.000000,233.750000 
	C136.800003,234.529724 136.600006,235.059448 136.199997,235.794586 
	C135.831879,235.728165 135.626511,235.488220 135.191940,235.140076 
z"/>
<path fill="#FFC400" opacity="1.000000" stroke="none" 
	d="
M131.833923,227.849915 
	C131.831879,228.271835 131.626511,228.511780 131.191940,228.859924 
	C130.846558,228.617554 130.693130,228.235107 130.539703,227.852661 
	C130.915756,227.801712 131.291794,227.750763 131.833923,227.849915 
z"/>
<path fill="#FFC400" opacity="1.000000" stroke="none" 
	d="
M167.489655,240.507416 
	C167.481522,240.486359 167.497787,240.528458 167.489655,240.507416 
z"/>
<path fill="#FFC400" opacity="1.000000" stroke="none" 
	d="
M146.890549,231.894501 
	C146.999222,232.000000 146.499756,231.999771 146.250031,231.999573 
	C146.216187,231.721024 146.476700,231.650894 146.890549,231.894501 
z"/>
<path fill="#FFC400" opacity="1.000000" stroke="none" 
	d="
M135.992249,257.531494 
	C138.140335,257.166595 140.281082,257.166595 142.710541,257.166595 
	C142.710541,259.948700 142.710541,262.689667 142.710541,265.979584 
	C139.126434,265.979584 135.521332,265.979584 131.457886,265.906433 
	C131.876572,264.449554 132.757782,263.068390 133.629425,261.681244 
	C134.419998,260.423035 135.200150,259.158264 135.992249,257.531494 
z"/>
</svg>